<?xml version="1.0" encoding="utf-8"?>
<!-- Generator: Adobe Illustrator 16.0.3, SVG Export Plug-In . SVG Version: 6.00 Build 0)  -->
<!DOCTYPE svg PUBLIC "-//W3C//DTD SVG 1.1//EN" "http://www.w3.org/Graphics/SVG/1.1/DTD/svg11.dtd">
<svg version="1.1" id="Vrstva_1" xmlns="http://www.w3.org/2000/svg" xmlns:xlink="http://www.w3.org/1999/xlink" x="0px" y="0px"
	 width="117.626px" height="66px" viewBox="0 0 117.626 66" enable-background="new 0 0 117.626 66" xml:space="preserve">
<g>
	<path fill="#FFFFFF" d="M26.155,18.023c7.44-5.082,14.632-6.93,21.015-6.924c6.229,0.002,11.658,1.732,15.927,3.787
		c2.141,0.506,4.14,1.369,5.925,2.543c-2.607-5.041-7.02-10.24-14.655-13.859c-2.137-1.01-4.534-1.895-7.218-2.611
		c-5.172,0.852-9.92,2.223-14.212,3.943C21.922,9.32,13.833,15.922,8.485,21.416c-5.35,5.498-7.975,9.902-8.065,10.053
		c-0.542,0.914-0.561,2.046-0.049,2.976c0.074,0.13,1.632,2.935,4.847,6.824C12.228,30.098,19.3,22.699,26.155,18.023z"/>
	<path fill="#FFFFFF" d="M63.734,6.031c6.084,5.178,9.081,11.451,10.551,16.598c1.295,1.928,2.233,4.111,2.735,6.459
		c0.827-2.656,1.378-5.639,1.378-8.924c-0.002-4.262-0.904-9.031-3.311-14.264c-0.683-1.484-1.504-3.01-2.444-4.566
		C68.35,0.484,63.738-0.002,58.814,0c-1.613,0-3.18,0.068-4.725,0.168C57.931,1.795,61.117,3.801,63.734,6.031z"/>
	<path fill="#FFFFFF" d="M77.813,4.646c2.581,5.604,3.586,10.828,3.585,15.518c-0.001,6.693-2.034,12.258-4.307,16.387
		c-0.445,2.303-1.32,4.445-2.529,6.361c4.932-2.629,9.977-7.006,13.512-14.467c2.377-5.027,4.062-11.484,4.488-19.781
		c-2.437-1.359-5.057-2.633-7.872-3.762C82.158,3.887,79.461,3,76.622,2.258C77.049,3.061,77.451,3.859,77.813,4.646z"/>
	<path fill="#FFFFFF" d="M85.611,37.814c-5.002,5.877-11.031,8.877-16.075,10.397c-2.263,1.599-4.897,2.692-7.749,3.151
		c2.557,0.691,5.348,1.132,8.323,1.132c5.809-0.007,12.335-1.644,19.323-6.401c6.654-4.537,13.721-11.951,20.809-23.521
		c-2.01-2.156-4.457-4.523-7.369-6.9c-2.2-1.793-4.677-3.584-7.408-5.287C94.549,23.162,90.64,31.912,85.611,37.814z"/>
	<path fill="#FFFFFF" d="M40.019,61.088c-2.58-5.604-3.585-10.828-3.584-15.516c0.001-6.461,1.897-11.869,4.074-15.951
		c0.45-2.457,1.38-4.742,2.692-6.762c-4.909,2.635-9.924,7.004-13.441,14.432c-2.44,5.162-4.153,11.828-4.521,20.445
		c2.229,1.209,4.606,2.348,7.162,3.363c2.826,1.123,5.857,2.102,9.09,2.883C40.959,63.008,40.457,62.041,40.019,61.088z"/>
	<path fill="#FFFFFF" d="M117.207,31.469c-0.07-0.115-1.675-2.799-4.881-6.557c-7.097,11.406-14.262,18.924-21.202,23.66
		c-7.44,5.082-14.632,6.93-21.014,6.924c-7.746-0.002-14.264-2.678-18.839-5.328c-0.425-0.246-0.828-0.49-1.219-0.734
		c-0.319-0.172-0.624-0.363-0.932-0.553c2.642,4.859,6.997,9.805,14.344,13.285c2.311,1.092,4.928,2.035,7.882,2.781
		c5.067-0.857,9.704-2.186,13.882-3.848c11.116-4.42,19.088-11.037,24.287-16.55c5.201-5.519,7.647-9.94,7.739-10.104
		C117.767,33.514,117.749,32.383,117.207,31.469z"/>
	<path fill="#FFFFFF" d="M32.221,27.922c5.104-5.996,11.273-8.996,16.377-10.488c1.73-1.139,3.665-1.982,5.732-2.494
		c-2.233-0.521-4.63-0.842-7.16-0.84c-5.811,0.006-12.336,1.643-19.324,6.402c-6.581,4.486-13.564,11.783-20.572,23.135
		c1.906,2.096,4.215,4.379,6.976,6.672c2.364,1.961,5.053,3.924,8.077,5.767C23.146,42.906,27.1,33.934,32.221,27.922z"/>
	<path fill="#FFFFFF" d="M54.096,59.703c-5.366-4.566-8.33-9.988-9.964-14.736c-0.097-0.094-0.153-0.148-0.163-0.158l0.08-0.08
		c-0.081-0.24-0.155-0.477-0.229-0.713c-1.485-2.02-2.576-4.342-3.151-6.867c-0.742,2.531-1.234,5.34-1.233,8.424
		c0.001,4.263,0.903,9.029,3.31,14.263c0.742,1.61,1.647,3.272,2.695,4.972C49.595,65.561,54.045,66,58.814,66
		c1.877,0,3.688-0.086,5.47-0.213C60.2,64.123,56.835,62.037,54.096,59.703z"/>
</g>
<linearGradient id="SVGID_1_" gradientUnits="userSpaceOnUse" x1="45.877" y1="32.0664" x2="71.6738" y2="32.0664" gradientTransform="matrix(1 0 0 -1 0.04 65.0645)">
	<stop  offset="0" style="stop-color:#78BE5A"/>
	<stop  offset="1" style="stop-color:#0096DC"/>
</linearGradient>
<path fill="url(#SVGID_1_)" d="M67.936,23.879c-2.323-2.329-5.569-3.781-9.119-3.779c-3.552-0.002-6.8,1.449-9.123,3.779
	c-2.329,2.324-3.779,5.572-3.777,9.123c-0.002,3.551,1.449,6.797,3.778,9.119c2.324,2.328,5.571,3.777,9.122,3.775
	c3.549,0.002,6.795-1.449,9.118-3.775c2.329-2.322,3.781-5.568,3.779-9.119C71.715,29.45,70.264,26.203,67.936,23.879z
	 M62.986,37.17c-1.079,1.072-2.531,1.725-4.169,1.727c-1.643-0.002-3.095-0.654-4.173-1.727c-1.073-1.078-1.725-2.527-1.727-4.168
	c0.002-1.642,0.655-3.095,1.728-4.174c1.079-1.073,2.531-1.726,4.172-1.728c1.637,0.002,3.089,0.654,4.168,1.728
	c1.073,1.079,1.727,2.533,1.729,4.174C64.711,34.641,64.058,36.092,62.986,37.17z"/>
</svg>
